# xmcd
#
# Track frame offsets:
# 150
# 12545
# 25465
# 43700
# 61570
# 73207
# 85402
# 97710
# 114065
# 125412
# 146652
# 164545
# 174065
# 201130
# 213100
# 232595
# 250062
#
# Disc length: 3493 seconds
#
#
# Revision: 10
# Processed by: cddbd v1.5.1PL0 Copyright (c) Steve Scherf et al.
# Submitted via: FreeRIP 2.92 
#
DISCID=d50da311
DTITLE=Various Artist - Soul Revival
DYEAR=1900
DGENRE=Soul
TTITLE0=Otus Redding/ Sittin On The Dock Of The Bay
TTITLE1=Percy Sledge - When A Man Loves A Woman
TTITLE2=The Commitments - Mustang Sally
TTITLE3=Dobie Gray - Drift Away
TTITLE4=Wilson Pickett - In The Midnight Hour
TTITLE5=Sam and Dave - Hold On I'm Coming
TTITLE6=Aretha Franklin - You Make Me Feel Like A Natural Woman
TTITLE7=Harold Melvin and The Blue Notes - If You Don't Know Me By Now
TTITLE8=The Rascals - Groov'in
TTITLE9=Gladys Knight and The Pips - Midnight Train To Georgia
TTITLE10=Earth Wind and Fire - After The Love Is Gone
TTITLE11=Bill Withers - Ain't No Sunshine
TTITLE12=The Jacksons - Can You Feel It
TTITLE13=Curtis Matfield - People Get Ready
TTITLE14=Dionne Warwick - HeartBreaker
TTITLE15=Aretha Franklin - Everyday People
TTITLE16=Martha Reeves - Dancing In The Streets
EXTD=
EXTT0=
EXTT1=
EXTT2=
EXTT3=
EXTT4=
EXTT5=
EXTT6=
EXTT7=
EXTT8=
EXTT9=
EXTT10=
EXTT11=
EXTT12=
EXTT13=
EXTT14=
EXTT15=
EXTT16=
PLAYORDER=
